<svg xmlns="http://www.w3.org/2000/svg" xmlns:xlink="http://www.w3.org/1999/xlink" width="500" zoomAndPan="magnify" viewBox="0 0 375 374.999991" height="500" preserveAspectRatio="xMidYMid meet" version="1.0"><defs><g/></defs><rect x="-37.5" width="450" fill="#ffffff" y="-37.499999" height="449.999989" fill-opacity="1"/><rect x="-37.5" width="450" fill="#000000" y="-37.499999" height="449.999989" fill-opacity="1"/><g fill="#ffffff" fill-opacity="1"><g transform="translate(23.138534, 217.725332)"><g><path d="M 53.78125 -49.609375 L 29.203125 -13.0625 L 51.84375 -13.0625 L 51.84375 0 L 0.484375 0 L 25.046875 -36.5625 L 4.546875 -36.5625 L 4.546875 -49.609375 Z M 53.78125 -49.609375 "/></g></g></g><g fill="#ffffff" fill-opacity="1"><g transform="translate(68.299823, 217.725332)"><g><path d="M 5.796875 0 L 5.796875 -83.171875 L 22.921875 -83.171875 L 22.921875 -44.390625 L 23.109375 -44.390625 C 27.566406 -48.835938 32.304688 -51.0625 37.328125 -51.0625 C 39.785156 -51.0625 42.222656 -50.738281 44.640625 -50.09375 C 47.054688 -49.457031 49.375 -48.460938 51.59375 -47.109375 C 53.820312 -45.753906 55.628906 -43.832031 57.015625 -41.34375 C 58.398438 -38.863281 59.09375 -35.976562 59.09375 -32.6875 L 59.09375 0 L 41.96875 0 L 41.96875 -28.046875 C 41.96875 -30.628906 41.144531 -32.882812 39.5 -34.8125 C 37.863281 -36.75 35.722656 -37.71875 33.078125 -37.71875 C 30.492188 -37.71875 28.15625 -36.71875 26.0625 -34.71875 C 23.96875 -32.71875 22.921875 -30.492188 22.921875 -28.046875 L 22.921875 0 Z M 5.796875 0 "/></g></g></g><g fill="#ffffff" fill-opacity="1"><g transform="translate(123.131869, 217.725332)"><g><path d="M 5.796875 0 L 5.796875 -49.609375 L 22.921875 -49.609375 L 22.921875 -44.390625 L 23.109375 -44.390625 C 27.566406 -48.835938 32.304688 -51.0625 37.328125 -51.0625 C 40.941406 -51.0625 44.328125 -50.320312 47.484375 -48.84375 C 50.648438 -47.363281 53.035156 -45.070312 54.640625 -41.96875 C 59.671875 -48.03125 65.15625 -51.0625 71.09375 -51.0625 C 76.375 -51.0625 80.914062 -49.578125 84.71875 -46.609375 C 88.53125 -43.648438 90.4375 -39.007812 90.4375 -32.6875 L 90.4375 0 L 73.3125 0 L 73.3125 -28.046875 C 73.3125 -30.691406 72.582031 -32.898438 71.125 -34.671875 C 69.675781 -36.441406 67.503906 -37.328125 64.609375 -37.328125 C 62.097656 -37.328125 60.179688 -36.566406 58.859375 -35.046875 C 57.535156 -33.535156 56.804688 -31.71875 56.671875 -29.59375 L 56.671875 0 L 39.5625 0 L 39.5625 -28.046875 C 39.5625 -30.691406 38.832031 -32.898438 37.375 -34.671875 C 35.925781 -36.441406 33.753906 -37.328125 30.859375 -37.328125 C 28.210938 -37.328125 26.226562 -36.503906 24.90625 -34.859375 C 23.582031 -33.222656 22.921875 -31.273438 22.921875 -29.015625 L 22.921875 0 Z M 5.796875 0 "/></g></g></g><g fill="#ffffff" fill-opacity="1"><g transform="translate(209.297187, 217.725332)"><g><path d="M 9.1875 -6.140625 C 4.539062 -11.203125 2.21875 -17.40625 2.21875 -24.75 C 2.21875 -32.101562 4.539062 -38.328125 9.1875 -43.421875 C 13.832031 -48.515625 19.734375 -51.0625 26.890625 -51.0625 C 33.460938 -51.0625 38.878906 -49 43.140625 -44.875 L 43.140625 -49.609375 L 60.25 -49.609375 L 60.25 0 L 43.328125 0 L 43.328125 -5.609375 L 43.140625 -5.609375 C 38.878906 -0.898438 33.460938 1.453125 26.890625 1.453125 C 19.734375 1.453125 13.832031 -1.078125 9.1875 -6.140625 Z M 23.734375 -33.171875 C 21.515625 -30.984375 20.40625 -28.179688 20.40625 -24.765625 C 20.40625 -21.347656 21.46875 -18.554688 23.59375 -16.390625 C 25.726562 -14.234375 28.535156 -13.15625 32.015625 -13.15625 C 35.367188 -13.15625 38.125 -14.25 40.28125 -16.4375 C 42.445312 -18.632812 43.53125 -21.410156 43.53125 -24.765625 C 43.53125 -28.179688 42.414062 -30.984375 40.1875 -33.171875 C 37.957031 -35.367188 35.234375 -36.46875 32.015625 -36.46875 C 28.722656 -36.46875 25.960938 -35.367188 23.734375 -33.171875 Z M 23.734375 -33.171875 "/></g></g></g><g fill="#58b9f1" fill-opacity="1"><g transform="translate(266.249975, 217.725332)"><g><path d="M 9.1875 -6.140625 C 4.539062 -11.203125 2.21875 -17.40625 2.21875 -24.75 C 2.21875 -32.101562 4.539062 -38.328125 9.1875 -43.421875 C 13.832031 -48.515625 19.734375 -51.0625 26.890625 -51.0625 C 33.460938 -51.0625 38.878906 -49 43.140625 -44.875 L 43.140625 -49.609375 L 60.25 -49.609375 L 60.25 0 L 43.328125 0 L 43.328125 -5.609375 L 43.140625 -5.609375 C 38.878906 -0.898438 33.460938 1.453125 26.890625 1.453125 C 19.734375 1.453125 13.832031 -1.078125 9.1875 -6.140625 Z M 23.734375 -33.171875 C 21.515625 -30.984375 20.40625 -28.179688 20.40625 -24.765625 C 20.40625 -21.347656 21.46875 -18.554688 23.59375 -16.390625 C 25.726562 -14.234375 28.535156 -13.15625 32.015625 -13.15625 C 35.367188 -13.15625 38.125 -14.25 40.28125 -16.4375 C 42.445312 -18.632812 43.53125 -21.410156 43.53125 -24.765625 C 43.53125 -28.179688 42.414062 -30.984375 40.1875 -33.171875 C 37.957031 -35.367188 35.234375 -36.46875 32.015625 -36.46875 C 28.722656 -36.46875 25.960938 -35.367188 23.734375 -33.171875 Z M 23.734375 -33.171875 "/></g></g></g></svg>